HIERARCHY
ROOT Hips
{
	OFFSET 52.550098 -10.502015 96.230301
	CHANNELS 6 Xposition Yposition Zposition Xrotation Yrotation Zrotation
	JOINT spine
	{
		OFFSET 0.000000 -0.467661 8.132492
		CHANNELS 3 Xrotation Yrotation Zrotation
		JOINT spine1
		{
			OFFSET 0.000000 -0.000002 10.349800
			CHANNELS 3 Xrotation Yrotation Zrotation
			JOINT spine2
			{
				OFFSET 0.000000 -0.000001 9.916992
				CHANNELS 3 Xrotation Yrotation Zrotation
				JOINT Neck
				{
					OFFSET 0.000000 -1.213904 25.461006
					CHANNELS 3 Xrotation Yrotation Zrotation
					JOINT Head
					{
						OFFSET 0.000000 -0.000001 7.692444
						CHANNELS 3 Xrotation Yrotation Zrotation
						End Site
						{
							OFFSET 0.000000 6.140627 18.619995
						}
					}
				}
				JOINT RightShoulder
				{
					OFFSET -4.175751 0.581443 10.709602
					CHANNELS 3 Xrotation Yrotation Zrotation
					JOINT RightArm
					{
						OFFSET 0.000000 -0.000003 14.046600
						CHANNELS 3 Xrotation Yrotation Zrotation
						JOINT RightArmRoll
						{
							OFFSET 0.000000 -0.000001 7.090988
							CHANNELS 3 Xrotation Yrotation Zrotation
							JOINT RightForeArm
							{
								OFFSET 0.000000 -0.000003 20.653503
								CHANNELS 3 Xrotation Yrotation Zrotation
								JOINT RightForeArmRoll
								{
									OFFSET 0.000000 -0.000002 7.957184
									CHANNELS 3 Xrotation Yrotation Zrotation
									JOINT RightHand
									{
										OFFSET 0.000000 -0.000002 15.968292
										CHANNELS 3 Xrotation Yrotation Zrotation
										End Site
										{
											OFFSET 0.000000 0.000000 0.100006
										}
									}
								}
							}
						}
					}
				}
				JOINT LeftShoulder
				{
					OFFSET 4.175751 0.581443 10.709602
					CHANNELS 3 Xrotation Yrotation Zrotation
					JOINT LeftArm
					{
						OFFSET 0.000000 -0.000003 14.046600
						CHANNELS 3 Xrotation Yrotation Zrotation
						JOINT LeftArmRoll
						{
							OFFSET 0.000000 -0.000001 7.090973
							CHANNELS 3 Xrotation Yrotation Zrotation
							JOINT LeftForeArm
							{
								OFFSET 0.000000 -0.000003 20.653503
								CHANNELS 3 Xrotation Yrotation Zrotation
								JOINT LeftForeArmRoll
								{
									OFFSET 0.000000 -0.000002 7.957184
									CHANNELS 3 Xrotation Yrotation Zrotation
									JOINT LeftHand
									{
										OFFSET 0.000000 -0.000002 15.968307
										CHANNELS 3 Xrotation Yrotation Zrotation
										End Site
										{
											OFFSET 0.000000 0.000000 0.100006
										}
									}
								}
							}
						}
					}
				}
			}
		}
	}
	JOINT RightUpLeg
	{
		OFFSET -7.208340 1.108840 -1.321823
		CHANNELS 3 Xrotation Yrotation Zrotation
		JOINT RightUpLegRoll
		{
			OFFSET 0.000000 -0.000003 18.723801
			CHANNELS 3 Xrotation Yrotation Zrotation
			JOINT RightLeg
			{
				OFFSET 0.000000 0.000004 -23.186600
				CHANNELS 3 Xrotation Yrotation Zrotation
				JOINT RightLegRoll
				{
					OFFSET 0.000000 -0.000004 23.262398
					CHANNELS 3 Xrotation Yrotation Zrotation
					JOINT RightFoot
					{
						OFFSET 0.000000 -0.000004 19.362099
						CHANNELS 3 Xrotation Yrotation Zrotation
						JOINT RightToeBase
						{
							OFFSET 0.000000 -0.000002 16.185699
							CHANNELS 3 Xrotation Yrotation Zrotation
							End Site
							{
								OFFSET 0.006859 0.903521 7.838623
							}
						}
					}
				}
			}
		}
	}
	JOINT LeftUpLeg
	{
		OFFSET 7.208340 1.108840 -1.321823
		CHANNELS 3 Xrotation Yrotation Zrotation
		JOINT LeftUpLegRoll
		{
			OFFSET 0.000000 -0.000003 18.723900
			CHANNELS 3 Xrotation Yrotation Zrotation
			JOINT LeftLeg
			{
				OFFSET 0.000000 -0.000004 23.186501
				CHANNELS 3 Xrotation Yrotation Zrotation
				JOINT LeftLegRoll
				{
					OFFSET 0.000000 -0.000004 23.477509
					CHANNELS 3 Xrotation Yrotation Zrotation
					JOINT LeftFoot
					{
						OFFSET 0.000000 -0.000004 19.147003
						CHANNELS 3 Xrotation Yrotation Zrotation
						JOINT LeftToeBase
						{
							OFFSET 0.000000 -0.000002 16.185699
							CHANNELS 3 Xrotation Yrotation Zrotation
							End Site
							{
								OFFSET -0.030746 0.903521 7.838623
							}
						}
					}
				}
			}
		}
	}
}
MOTION
Frames: 12
Frame Time: 0.041667
52.342896 -9.627262 96.192490 -3.773292 1.137739 0.250173 -1.265782 -0.476761 0.077080 1.471724 -0.977984 0.146842 3.116902 -0.976093 0.158324 10.576929 1.143147 -3.338342 -3.123577 -2.860880 -3.215617 -18.995309 -59.970871 -22.451774 -45.519925 -116.251992 -23.165946 -0.000002 -0.000001 -0.000004 1.782696 -7.490555 -0.534168 0.000001 0.000007 -3.000000 -5.000232 -7.999061 0.000140 -15.350386 63.050193 18.229577 -49.401505 115.583658 36.107607 -0.000005 0.000017 0.000004 0.066293 7.707145 1.274132 0.000003 0.000027 3.049280 -5.000195 7.998999 -0.000116 -0.457808 -173.992198 3.341533 179.999991 -0.000005 -1.060000 170.756792 -1.693730 -0.543592 -0.000001 0.000001 0.020153 68.818172 6.384236 3.451225 25.457659 -7.355614 0.001150 -0.664203 172.574497 -1.763167 -0.000020 -0.000004 -0.944999 -12.712564 0.769430 0.715096 -0.000000 0.000000 -0.167408 72.250622 -6.084521 -4.168832 25.459177 7.355613 -0.003286 
52.344601 -9.626429 96.203194 -3.772194 1.137172 0.251744 -1.265720 -0.476762 0.077829 1.471654 -0.976951 0.146913 3.116832 -0.975050 0.158397 10.577601 1.135035 -3.338811 -3.130974 -2.850595 -3.216485 -18.994140 -59.976192 -22.450396 -45.530543 -116.254997 -23.170681 -0.000002 -0.000000 -0.000003 1.771149 -7.485865 -0.534184 -0.000002 0.000008 -3.000002 -5.000235 -7.999060 0.000142 -15.353953 63.045610 18.233619 -49.383654 115.581049 36.096696 -0.000002 0.000017 0.000004 0.066290 7.710985 1.272080 0.000000 0.000027 3.049202 -5.000192 7.999001 -0.000117 -0.443855 -173.996173 3.335904 179.999991 -0.000004 -1.059999 170.788853 -1.686979 -0.541525 -0.000001 0.000001 0.018929 68.805386 6.382366 3.456512 25.457659 -7.355616 0.001151 -0.655490 172.576491 -1.763816 -0.000019 -0.000004 -0.945019 -12.692561 0.770128 0.714236 0.000001 0.000001 -0.167411 72.240930 -6.086259 -4.164030 25.459175 7.355612 -0.003288 
52.350101 -9.629570 96.182594 -3.770965 1.136644 0.253309 -1.265671 -0.476762 0.078600 1.471534 -0.975900 0.146959 3.116710 -0.973987 0.158445 10.578368 1.126539 -3.339301 -3.138525 -2.839960 -3.217379 -18.993083 -59.981594 -22.449148 -45.543121 -116.257510 -23.177193 -0.000002 -0.000001 -0.000005 1.759018 -7.480955 -0.534197 -0.000001 0.000008 -3.000001 -5.000235 -7.999060 0.000142 -15.357752 63.040788 18.237906 -49.365988 115.578508 36.085846 -0.000003 0.000017 0.000004 0.066296 7.714696 1.270065 0.000001 0.000027 3.049141 -5.000192 7.999000 -0.000116 -0.429522 -174.001159 3.330030 179.999991 -0.000004 -1.060000 170.822007 -1.680218 -0.540428 -0.000002 0.000001 0.017660 68.792279 6.380463 3.461810 25.457662 -7.355615 0.001151 -0.646589 172.577461 -1.764477 -0.000019 -0.000005 -0.945034 -12.671965 0.770830 0.713340 -0.000000 0.000001 -0.167412 72.230931 -6.088061 -4.159159 25.459175 7.355614 -0.003288 
52.346901 -9.629241 96.183502 -3.769662 1.136147 0.254870 -1.265645 -0.476762 0.079388 1.471383 -0.974835 0.146986 3.116549 -0.972913 0.158475 10.579137 1.117758 -3.339797 -3.146177 -2.829086 -3.218291 -18.992094 -59.986997 -22.447970 -45.554394 -116.260789 -23.182229 -0.000004 -0.000001 -0.000005 1.746460 -7.475896 -0.534214 -0.000000 0.000007 -3.000001 -5.000233 -7.999060 0.000143 -15.361688 63.035748 18.242353 -49.346894 115.576691 36.073286 -0.000004 0.000017 0.000004 0.066294 7.718314 1.268070 0.000001 0.000026 3.049080 -5.000192 7.999000 -0.000117 -0.414925 -174.005148 3.323964 179.999991 -0.000004 -1.059999 170.855939 -1.672490 -0.538164 -0.000002 0.000002 0.016360 68.778741 6.378522 3.467325 25.457662 -7.355614 0.001150 -0.637550 172.579455 -1.765157 -0.000019 -0.000005 -0.945046 -12.650963 0.771537 0.712417 0.000001 0.000001 -0.167415 72.220740 -6.089891 -4.154098 25.459177 7.355612 -0.003286 
52.342201 -9.623957 96.192291 -3.768302 1.135670 0.256429 -1.265615 -0.476762 0.080186 1.471213 -0.973765 0.147004 3.116379 -0.971831 0.158495 10.580004 1.108828 -3.340297 -3.153879 -2.818071 -3.219197 -18.991092 -59.992400 -22.446811 -45.566026 -116.264204 -23.187370 -0.000001 -0.000000 -0.000005 1.733680 -7.470741 -0.534226 -0.000004 0.000008 -3.000001 -5.000233 -7.999060 0.000143 -15.365648 63.030509 18.246828 -49.329364 115.574218 36.062378 -0.000004 0.000017 0.000005 0.066290 7.721886 1.266087 0.000003 0.000026 3.049030 -5.000193 7.999000 -0.000117 -0.400169 -174.010148 3.317811 179.999991 -0.000004 -1.060000 170.890295 -1.665730 -0.537063 -0.000001 0.000001 0.015042 68.765088 6.376563 3.472946 25.457659 -7.355615 0.001150 -0.628430 172.580439 -1.765836 -0.000019 -0.000004 -0.945056 -12.629664 0.772244 0.711480 0.000000 0.000001 -0.167418 72.210345 -6.091752 -4.149059 25.459175 7.355613 -0.003287 
52.350899 -9.625091 96.185791 -3.766929 1.135193 0.257987 -1.265592 -0.476762 0.080985 1.471032 -0.972692 0.147019 3.116197 -0.970747 0.158513 10.580871 1.099851 -3.340798 -3.161595 -2.807017 -3.220107 -18.990188 -59.997877 -22.445735 -45.577641 -116.267633 -23.192594 0.000001 0.000000 -0.000004 1.720834 -7.465572 -0.534237 -0.000003 0.000007 -3.000002 -5.000234 -7.999061 0.000143 -15.369659 63.025256 18.251365 -49.310411 115.572483 36.049841 -0.000003 0.000016 0.000001 0.066295 7.725444 1.264113 0.000002 0.000026 3.048980 -5.000195 7.998999 -0.000117 -0.385373 -174.015134 3.311627 179.999991 -0.000003 -1.059999 170.924774 -1.657999 -0.534802 -0.000002 0.000001 0.013720 68.751448 6.374597 3.478362 25.457659 -7.355616 0.001150 -0.619290 172.581436 -1.766516 -0.000019 -0.000005 -0.945067 -12.608262 0.772951 0.710537 0.000001 0.000001 -0.167421 72.199963 -6.093641 -4.143921 25.459170 7.355613 -0.003287 
52.348495 -9.623759 96.195091 -3.765590 1.134705 0.259546 -1.265565 -0.476762 0.081781 1.470861 -0.971623 0.147039 3.116026 -0.969666 0.158536 10.581639 1.090962 -3.341303 -3.169286 -2.796033 -3.221009 -18.989248 -60.003376 -22.444625 -45.589262 -116.271048 -23.197739 -0.000002 -0.000001 -0.000005 1.708107 -7.460443 -0.534246 0.000001 0.000007 -3.000003 -5.000233 -7.999062 0.000142 -15.373627 63.020120 18.255844 -49.292884 115.570025 36.039022 -0.000002 0.000016 0.000002 0.066296 7.729025 1.262126 -0.000000 0.000026 3.048930 -5.000193 7.998999 -0.000117 -0.370660 -174.020120 3.305494 179.999991 -0.000005 -1.060996 170.959034 -1.651237 -0.533706 -0.000002 0.000001 0.012406 68.737904 6.372598 3.483965 25.457657 -7.355615 0.001150 -0.610193 172.583403 -1.767203 -0.000019 -0.000005 -0.945078 -12.586965 0.773657 0.709599 0.000001 0.000001 -0.167423 72.189663 -6.095496 -4.138875 25.459173 7.355613 -0.003286 
52.344398 -9.623810 96.189896 -3.764307 1.134198 0.261109 -1.265523 -0.476762 0.082564 1.470720 -0.970563 0.147072 3.115876 -0.968595 0.158571 10.582510 1.082259 -3.341794 -3.176907 -2.785229 -3.221902 -18.988233 -60.008778 -22.443421 -45.600542 -116.274326 -23.202771 -0.000002 -0.000001 -0.000004 1.695668 -7.455423 -0.534251 -0.000001 0.000007 -3.000003 -5.000232 -7.999062 0.000141 -15.377498 63.015100 18.260222 -49.273767 115.568235 36.026434 -0.000004 0.000017 0.000004 0.066293 7.732665 1.260125 0.000002 0.000026 3.048869 -5.000192 7.999000 -0.000115 -0.356133 -174.024122 3.299472 179.999991 -0.000004 -1.060996 170.992748 -1.644483 -0.531640 -0.000001 0.000001 0.011115 68.724476 6.370675 3.489378 25.457657 -7.355617 0.001151 -0.601190 172.584414 -1.767875 -0.000019 -0.000005 -0.945091 -12.566062 0.774359 0.708683 0.000000 0.000001 -0.167426 72.179458 -6.097321 -4.133917 25.459175 7.355613 -0.003287 
52.347500 -9.628919 96.197792 -3.763117 1.133661 0.262676 -1.265476 -0.476762 0.083329 1.470610 -0.969517 0.147126 3.115775 -0.967539 0.158626 10.583179 1.073871 -3.342271 -3.184406 -2.774695 -3.222772 -18.987101 -60.014092 -22.442096 -45.611324 -116.277400 -23.207449 -0.000002 0.000000 -0.000004 1.683710 -7.450579 -0.534255 -0.000001 0.000008 -3.000000 -5.000232 -7.999060 0.000144 -15.381233 63.010373 18.264447 -49.256059 115.565708 36.015570 -0.000005 0.000017 0.000002 0.066293 7.736417 1.258100 0.000002 0.000026 3.048799 -5.000191 7.998999 -0.000116 -0.341914 -174.029108 3.293652 179.999991 -0.000004 -1.060997 171.025560 -1.636725 -0.530447 -0.000002 0.000001 0.009860 68.711478 6.368742 3.494763 25.457664 -7.355614 0.001150 -0.592345 172.586395 -1.768537 -0.000019 -0.000004 -0.945108 -12.545664 0.775057 0.707795 0.000000 0.000001 -0.167428 72.169575 -6.099110 -4.129138 25.459173 7.355613 -0.003288 
52.348701 -9.627220 96.196091 -3.762068 1.133083 0.264250 -1.265404 -0.476762 0.084067 1.470559 -0.968492 0.147207 3.115724 -0.966503 0.158710 10.583952 1.065916 -3.342729 -3.191751 -2.764551 -3.223615 -18.985914 -60.019420 -22.440692 -45.623201 -116.279668 -23.213631 -0.000000 -0.000000 -0.000005 1.672408 -7.445985 -0.534254 -0.000001 0.000007 -3.000002 -5.000235 -7.999060 0.000143 -15.384771 63.006002 18.268435 -49.238048 115.563030 36.004516 -0.000004 0.000017 0.000004 0.066294 7.740305 1.256033 0.000003 0.000026 3.048719 -5.000191 7.999000 -0.000115 -0.328116 -174.033111 3.288110 179.999991 -0.000005 -1.060996 171.057170 -1.630942 -0.528613 -0.000002 0.000001 0.008654 68.698808 6.366907 3.499945 25.457660 -7.355615 0.001151 -0.583711 172.587378 -1.769171 -0.000019 -0.000005 -0.945129 -12.525962 0.775750 0.706947 0.000001 0.000000 -0.167429 72.160081 -6.100834 -4.124327 25.459175 7.355613 -0.003288 
52.347095 -9.624460 96.196297 -3.761182 1.132436 0.265832 -1.265302 -0.476762 0.084773 1.470580 -0.967490 0.147325 3.115743 -0.965493 0.158829 10.584527 1.058512 -3.343158 -3.198895 -2.754886 -3.224430 -18.984576 -60.024672 -22.439108 -45.632975 -116.282345 -23.217922 -0.000003 -0.000001 -0.000005 1.661919 -7.441684 -0.534246 -0.000000 0.000007 -3.000002 -5.000236 -7.999060 0.000143 -15.388015 63.002061 18.272115 -49.221611 115.559725 35.995391 -0.000003 0.000017 0.000003 0.066292 7.744385 1.253922 -0.000000 0.000026 3.048620 -5.000193 7.999000 -0.000116 -0.314847 -174.037100 3.282922 179.999991 -0.000005 -1.060997 171.087209 -1.624154 -0.526672 -0.000002 0.000001 0.007511 68.686793 6.365117 3.504900 25.457660 -7.355616 0.001151 -0.575354 172.588375 -1.769769 -0.000019 -0.000004 -0.945158 -12.507264 0.776436 0.706154 0.000001 0.000000 -0.167430 72.150990 -6.102490 -4.119884 25.459175 7.355613 -0.003287 
52.346401 -9.625349 96.197090 -3.760504 1.131728 0.267424 -1.265173 -0.476762 0.085439 1.470679 -0.966520 0.147486 3.115842 -0.964514 0.158992 10.585003 1.051767 -3.343566 -3.205774 -2.745812 -3.225214 -18.982983 -60.029740 -22.437238 -45.643371 -116.283984 -23.223367 -0.000002 -0.000001 -0.000005 1.652449 -7.437762 -0.534236 -0.000000 0.000007 -3.000001 -5.000232 -7.999060 0.000144 -15.391000 62.998769 18.275501 -49.204843 115.556255 35.986187 -0.000003 0.000016 0.000003 0.066296 7.748675 1.251745 0.000000 0.000027 3.048491 -5.000194 7.999001 -0.000116 -0.302234 -174.041088 3.278152 179.999991 -0.000004 -1.060997 171.115363 -1.618353 -0.525945 -0.000002 0.000001 0.006444 68.675428 6.363415 3.509633 25.457660 -7.355616 0.001150 -0.567327 172.590356 -1.770354 -0.000020 -0.000005 -0.945194 -12.489563 0.777112 0.705421 0.000001 0.000000 -0.167429 72.142405 -6.104053 -4.115700 25.459173 7.355613 -0.003287 
